<?xml version="1.0" standalone="no"?><!DOCTYPE svg PUBLIC "-//W3C//DTD SVG 1.1//EN" "http://www.w3.org/Graphics/SVG/1.1/DTD/svg11.dtd"><svg t="1598609519472" class="icon" viewBox="0 0 1269 1024" version="1.1" xmlns="http://www.w3.org/2000/svg" p-id="20355" xmlns:xlink="http://www.w3.org/1999/xlink" width="247.8515625" height="200"><defs><style type="text/css"></style></defs><path d="M857.034645 631.8593479999998c-1.576323 0-3.03139-0.12125600000000002-4.486458-0.24251099999999998H401.96233c-0.727534 0-1.455067 0-2.303857-0.12125600000000002-30.071392-2.303857-47.289689-24.008611-51.291124-44.37955399999999-16.85453-53.958748-42.439464-135.442519-48.017223-151.569516h-124.28700300000001c-16.733275 0-30.313903-13.580629-30.313903-30.313903s13.580629-30.313903 30.313903-30.313903h132.168618c1.333812 0 2.667623 0.12125600000000002 3.88018 0.24251099999999998 14.793185 1.94009 35.406639 12.974351 44.50081 37.71049599999999 2.303857 6.305292 9.457938 28.373813 17.582064 54.201259h535.949808c9.821705 0 19.158387 4.850225 24.857401 12.853095 5.699014 8.124126 7.032826 18.430853 3.758924 27.646279-0.24251099999999998 0.727534-24.372378 67.539376-31.526460000000004 87.425297-10.185471 27.888790999999998-33.102782 36.861706-50.199823 36.861706z m2.788879-60.264039c0.24251099999999998 0 0.363767 0.12125600000000002 0.606278 0.12125499999999999-0.24251099999999998-0.12125600000000002-0.363767-0.12125600000000002-0.606278-0.12125499999999999z m-453.01096999999993-0.4850229999999999h444.64433199999996c3.6376680000000006-10.064216 9.821705-27.161257 15.641974999999999-43.288253H393.353181c6.669059 21.219732 12.004306 38.316774 13.459372999999998 43.288253z" fill="#2e9571" p-id="20356"></path><path d="M730.0800179999999 827.687163H471.926819c-13.944395 0-25.948701-9.457938-29.343858999999995-22.917311l-48.017222-190.371312c-4.122691-16.248252 5.699014-32.739015 21.947265999999996-36.861706 16.248252-4.122691 32.739015 5.699014 36.861706 21.947265999999996L495.692919 767.059357h234.50835499999997c5.213991-0.12125600000000002 28.252558-2.061345 36.982962-28.495069000000004 16.490763-50.199824 40.378119-143.566646 40.62063-144.536691 4.122691-16.248252 20.613454-25.948701 36.861706-21.82601 16.248252 4.122691 25.948701 20.613454 21.82601 36.861706-0.970045 3.88018-24.736145 96.27695699999998-41.833186 148.41687-12.125561 36.982962-37.467984 54.201259-56.505114999999996 62.082874-17.703319 7.517848-33.102782 8.124126-38.074263 8.124126z m0.363767-60.627806z" fill="#2e9571" p-id="20357"></path><path d="M434.337579 932.815779c-3.03139 0-6.184035999999999-0.48502199999999995-9.215427-1.455067-15.884485-5.0927359999999995-24.736145-22.189776999999996-19.643409-38.074263l36.376684-113.49525299999999c5.0927359999999995-15.884485 22.189776999999996-24.736145 38.074262-19.643409 15.884485 5.0927359999999995 24.736145 22.189776999999996 19.643409 38.074262l-36.376684 113.49525400000002c-4.122691 12.853095-16.126996 21.098477-28.858835 21.098476z" fill="#2e9571" p-id="20358"></path><path d="M457.861167 1023.9999999999999c-41.833186 0-75.906014-34.072827-75.906013-75.906014s34.072827-75.906014 75.906013-75.906013 75.906014 34.072827 75.906014 75.906013-34.072827 75.906014-75.906014 75.906014z m0-96.03444499999998c-11.155516 0-20.128432 8.972915-20.128431 20.128431s8.972915 20.128432 20.128431 20.128432c11.155516 0 20.128432-8.972915 20.128432-20.128432s-8.972915-20.128432-20.128432-20.128431zM778.582263 1023.9999999999999c-41.833186 0-75.906014-34.072827-75.906013-75.906014s34.072827-75.906014 75.906013-75.906013 75.906014 34.072827 75.906014 75.906013-34.072827 75.906014-75.906014 75.906014z m0-96.03444499999998c-11.155516 0-20.128432 8.972915-20.128432 20.128431s8.972915 20.128432 20.128432 20.128432 20.128432-8.972915 20.128432-20.128432-9.094171-20.128432-20.128432-20.128431z" fill="#2e9571" p-id="20359"></path><path d="M764.1528449999998 926.752999h-297.076251c-15.399463000000003 0-27.888790999999998-12.489328-27.888790999999998-27.888790999999998s12.489328-27.888790999999998 27.888790999999998-27.888790999999998h297.076251c15.399463000000003 0 27.888790999999998 12.489328 27.888790999999998 27.888790999999998s-12.489328 27.888790999999998-27.888790999999998 27.888790999999998zM607.611849 524.790642c-1.212556 0-2.5463679999999997-0.12125600000000002-3.758924-0.24251099999999998-16.612019-2.061345-28.373813-17.218297-26.312468-33.830316 10.427983-83.787628-4.243946-149.508171-43.530765-195.221536-57.96018300000001-67.418121-150.599471-70.813278-151.44826-70.813278-16.733275-0.48502199999999995-29.950136-14.429418000000002-29.465114-31.162693000000004 0.48502199999999995-16.733275 14.429418000000002-29.828881 31.162693000000004-29.465114 4.850225 0.12125600000000002 120.528079 4.365202 195.82781399999993 91.911755 50.927357 59.293995 70.328255 140.77776599999999 57.71767200000001 242.14745799999992-1.94009 15.520718-15.035696 26.676235-30.192648 26.676235z" fill="#2e9571" p-id="20360"></path><path d="M605.671759 524.790642c-16.612019 0-30.071392-13.338117-30.313903-29.950136-0.848789-68.751932 12.610584-133.259918 39.893097-191.583868 21.82601-46.683411 52.503679999999996-89.365387 91.062965-126.833371C771.670693 112.76407 837.633747 85.845324 840.422626 84.75402400000002 855.943344 78.56998699999997 873.646664 86.08783499999998 879.8307 101.60855400000003c6.184035999999999 15.520718-1.333812 33.102782-16.733275 39.408074-1.212556 0.48502199999999995-59.536506 24.857401-116.16287699999998 80.513727-74.935969 73.723413-112.282697 165.392656-110.948885 272.70387299999993 0.24251099999999998 16.733275-13.216862 30.435159-29.950136999999998 30.67767-0.12125600000000002-0.12125600000000002-0.24251099999999998-0.12125600000000002-0.363767-0.12125600000000002zM413.239102 357.579152c-4.243946 0-8.366637-0.24251099999999998-12.610584-0.727533-44.137043-4.728969-86.091485-34.194083-124.52951400000002-87.54655299999999-28.373813-39.286819-47.289689-81.483772-54.08000299999999-97.732024-7.760359-18.430853-0.12125600000000002-39.408074 17.582063-48.744756 58.566461-30.67767 110.342608-48.502245 153.994629-53.10995799999999C434.216323 65.59563700000001 468.89542800000004 72.507207 496.541708 90.69554900000003c72.51085599999999 47.289689 66.448076 149.871937 66.205564 154.237139-0.363767 5.456503-2.182601 10.79175-5.456502 15.278207-45.107088 64.75049699999998-93.609333 97.368257-144.051668 97.368257z m-126.95462699999999-190.371312c8.487893 17.945831 21.704755 43.045743 38.801796 66.690587 19.279642 26.676235 49.108523 59.293995 81.847539 62.810407999999995 29.828881 3.152646 61.840363-18.188342 95.306912-63.659196999999985-0.363767-19.522154-4.850225-69.479466-39.044308-91.669243-34.800361-22.674799999999998-95.670678-13.701884-176.911939 25.827444999999997z m246.27014999999997 75.66350299999999z m0 0z" fill="#2e9571" p-id="20361"></path><path d="M814.110158 287.49340800000004c-40.378119 0-84.272651-19.279642-131.077318-57.596416-4.728969-3.88018-8.245382-9.094171-9.94296-15.035696-1.333812-4.486458-30.920181-110.82763 32.981527-173.638037 23.7661-23.402333 56.74762700000001-36.982962 97.974535-40.37812 43.89453199999999-3.6376680000000006 98.459558 4.486458 162.361265 24.008612 14.186907 4.365202 23.159822 18.309598 21.219733 33.102782-0.24251099999999998 1.8188340000000003-6.184035999999999 44.50081-23.644845 92.03300999999999-24.978656 68.145654-60.38529499999999 111.67641899999998-105.007361 129.258483-14.308162 5.456503-29.343858000000004 8.245382-44.86457599999999 8.245382z m-84.757674-98.095791c42.924487 33.224038 79.05866 44.37955399999999 107.553729 33.224038 47.774711-18.79462 75.057224-98.823324 85.970229-147.325569-85.12144-22.432287999999996-145.021713-19.400898-174.12306 8.972915-30.435159 29.828881-23.523589 83.908884-19.400898 105.12861599999998z" fill="#2e9571" p-id="20362"></path></svg>